<svg xmlns="http://www.w3.org/2000/svg" viewBox="0 0 64 64" width="64" height="64">
  <rect width="64" height="64" rx="12" fill="#0f766e"/>
  <path d="M20 22h20a6 6 0 0 1 6 6v8a6 6 0 0 1-6 6H24l-6 6v-6a6 6 0 0 1-4-6v-8a6 6 0 0 1 6-6z" fill="#ffffff"/>
  <path d="M24 30l-4 4 4 4M40 30l4 4-4 4M30 40l4-12" stroke="#0f766e" stroke-width="2.5" fill="none" stroke-linecap="round" stroke-linejoin="round"/>
  <text x="32" y="61" font-family="monospace" font-size="8" fill="#ccfbf1" text-anchor="middle">route</text>
</svg>
